<?xml version="1.0" standalone="no"?>
<!DOCTYPE svg PUBLIC "-//W3C//DTD SVG 20010904//EN"
 "http://www.w3.org/TR/2001/REC-SVG-20010904/DTD/svg10.dtd">
<svg version="1.0" xmlns="http://www.w3.org/2000/svg"
 width="500.000000pt" height="500.000000pt" viewBox="0 0 500.000000 500.000000"
 preserveAspectRatio="xMidYMid meet">

<g transform="translate(0.000000,500.000000) scale(0.100000,-0.100000)"
fill="#000000" stroke="none">
<path d="M2360 4979 c-603 -30 -1180 -289 -1616 -724 -280 -280 -474 -593
-598 -965 -93 -281 -127 -491 -127 -791 0 -564 179 -1086 529 -1538 92 -119
317 -342 437 -432 318 -238 693 -404 1073 -474 272 -50 612 -50 884 0 380 70
754 235 1072 474 120 90 345 312 437 431 224 290 371 591 458 940 55 217 72
366 72 611 0 272 -36 499 -117 750 -126 389 -320 707 -608 994 -506 504 -1178
760 -1896 724z m1025 -1166 c251 -167 385 -262 385 -273 0 -30 -56 -202 -110
-339 -88 -222 -320 -674 -354 -687 -9 -4 -455 242 -475 261 -2 2 35 80 82 172
75 149 237 532 237 562 0 24 -286 -160 -430 -276 -101 -81 -330 -301 -330
-317 0 -35 82 -211 260 -554 201 -391 280 -561 351 -751 l38 -105 -166 -265
c-91 -146 -167 -268 -169 -270 -13 -14 -424 117 -661 211 -178 70 -443 198
-590 284 -140 82 -433 275 -433 284 0 11 248 461 260 474 5 5 79 -37 177 -101
203 -134 442 -272 620 -358 144 -71 303 -139 309 -133 13 14 -161 348 -391
753 -183 322 -310 610 -289 655 17 36 239 271 352 373 213 191 470 385 662
502 81 49 270 154 278 155 1 0 175 -115 387 -257z"/>
</g>
</svg>
